<svg xmlns="http://www.w3.org/2000/svg" xmlns:xlink="http://www.w3.org/1999/xlink" viewBox="0 0 1365.32 288.99"><defs><style>.cls-1,.cls-2{fill-rule:evenodd;}.cls-1{fill:url(#linear-gradient);}.cls-2{fill:url(#linear-gradient-2);}.cls-3{fill:#fff;}</style><linearGradient id="linear-gradient" x1="110.02" y1="67.84" x2="110.02" y2="331.39" gradientUnits="userSpaceOnUse"><stop offset="0" stop-color="#0187aa"/><stop offset="0.65" stop-color="#00a1be"/><stop offset="1" stop-color="#00b3cb"/></linearGradient><linearGradient id="linear-gradient-2" x1="144.49" y1="253.96" x2="144.49" y2="35.05" gradientUnits="userSpaceOnUse"><stop offset="0" stop-color="#016d96"/><stop offset="0.66" stop-color="#0187aa"/><stop offset="1" stop-color="#00b3cb"/></linearGradient></defs><title>logoAsset 9</title><g id="Layer_2" data-name="Layer 2"><g id="Layer_1-2" data-name="Layer 1"><g id="Icon"><path class="cls-1" d="M0,144.49A144.52,144.52,0,0,0,144.49,289C76.82,270.18,42.86,140,72,78.85,74.38,72,78,66.33,82.89,62.44s10.93-5.92,18.55-5.92c16.15,0,29.66,13.1,43.05,13.1s26.91-13.1,43.06-13.1c19.69,0,30.7,16.14,32.48,34.61C217.42,18.39,22.19-20.2,0,144.49Z"/><path class="cls-2" d="M72,78.85C42.86,140,76.82,270.18,144.49,289A144.5,144.5,0,1,0,0,144.49C22.19-20.2,217.42,18.39,220,91.13,228,142.38,195,232.47,178.19,232.47c-29.77,0-3.88-60.09-33.7-63.53-29.82,3.44-3.93,63.53-33.69,63.53C92.58,232.47,55.21,126.22,72,78.85Z"/></g><g id="Text"><path class="cls-3" d="M506.5,172.11q-2.82,11.49-7.58,37.89l-.78.55h-4.93l-.78-.55L492,194.22c-.2-7.14-1.06-11.48-2.57-13.05a6.46,6.46,0,0,0-3.21-1.79q-2.73-.63-13.51-.78l-13.44-.24h-21.8q-7.33.07-32.26.24l-26.33.23-.78-.55v-5.47l.78-.78a84.87,84.87,0,0,0,9.14-.78,3.41,3.41,0,0,0,2.66-2.89q1-5.62,1-24.22V102.81q0-18.59-1-24.21A3.41,3.41,0,0,0,388,75.71a86.41,86.41,0,0,0-9.14-.79l-.78-.78V68.83l.78-.7q8.67.47,24.06.47T427,68.13l.71.7-.08,5.31-.78.78a86.09,86.09,0,0,0-9.14.79,3.39,3.39,0,0,0-2.66,2.89q-1,5.63-1,24.21v42q0,15.85.71,25.62H462.2q.71-9.76.7-25.62v-42q0-18.59-1-24.21a3.41,3.41,0,0,0-2.66-2.89,86.41,86.41,0,0,0-9.14-.79l-.86-.78V68.83l.7-.7q6.49.47,23.13.47t25.15-.47l.79.7v5.31l-.79.78a83.76,83.76,0,0,0-9.21.79,3.39,3.39,0,0,0-2.66,2.89q-1,5.63-1,24.21v41.65q0,21.09.71,24.06c.2.83.52,1.33.93,1.48a24.23,24.23,0,0,0,6.25.47,107.06,107.06,0,0,0,12.74-.7Z"/><path class="cls-3" d="M591.26,139.46l-1.09,1.25q-5.79,2.26-27,2.26-13.21,0-24.07-.23.7,12.42,6.8,19.84,6.79,8.21,18.83,8.2a36.67,36.67,0,0,0,21.09-6.25l1.33,2.74L584,173.91q-14.07,7.72-28,7.73-24,0-32.74-17.58a45.27,45.27,0,0,1-4.53-20.39q0-17.56,10.55-28.43,11.79-12.12,29.37-12.11,16,0,24.3,8T591.26,137Zm-20.86-4.22a77.59,77.59,0,0,0-.86-11.72q-1.41-6.72-5.39-10.08-3.58-3-9.69-3-16.17,0-16.17,20.94c0,1.14,0,2.63.08,4.45q3.9.24,10.08.24Q561.11,136.1,570.4,135.24Z"/><path class="cls-3" d="M700.4,178.13l-.78.78q-7.43-.56-21.33-.55-13,0-21.33.55l-.78-.78v-4.77l.63-.78c5-.21,8-.52,9-.94a3.09,3.09,0,0,0,2-2.34c.32-1.51.47-5.29.47-11.33V140.31H632.43V158q0,9.06.55,11.33a3.1,3.1,0,0,0,2,2.34q1.63.63,8.91.94l.78.78v4.77l-.78.78q-7.35-.56-21.33-.55t-21.41.55l-.78-.78v-4.77l.86-.78q6.79-.32,8.67-.94a3.12,3.12,0,0,0,2-2.34c.32-1.1.47-4.87.47-11.33V132q0-18-1.17-19.45a3.58,3.58,0,0,0-2-1.17,69.58,69.58,0,0,0-8.21-.7l-.78-.79v-4.76l.78-.78q7.5.54,21.33.54,14.07,0,21.41-.54l.78.78V110l-.86.78c-4.64.11-7.6.39-8.91.86a3.29,3.29,0,0,0-2,2.7q-.39,2.07-.39,12.62v7.57h35.86v-5.31q0-9.37-.23-12.34c-.26-3.08-1.23-4.87-2.89-5.39a51.29,51.29,0,0,0-8.21-.71l-.86-.86v-4.76l.86-.78q7.42.54,21.33.54,13.13,0,21.33-.54l.78.78V110l-.78.78c-4.64.11-7.61.39-8.91.86a3.29,3.29,0,0,0-2,2.7q-.39,2.07-.39,12.62v31q0,9.06.55,11.33a3.1,3.1,0,0,0,2,2.34q1.64.63,8.75.94l.78.78Z"/><path class="cls-3" d="M788.68,124.46l-.86.85h-3l-.62-.85q-2.58-8.13-4.45-10.55a5.91,5.91,0,0,0-4-2.19q-2.1-.39-17.89-.39v26.72q0,27.42.78,30.86a3.74,3.74,0,0,0,2.66,3,54.22,54.22,0,0,0,8.12.7l.79.78v4.77l-.79.78q-7.34-.56-21.4-.55t-21.41.55l-.78-.78v-4.77l.78-.78a53,53,0,0,0,8-.7,3.74,3.74,0,0,0,2.58-3q.78-3.43.78-30.86V111.33q-14.76,0-17.58.31a6.85,6.85,0,0,0-4.22,2.11q-1.71,1.8-4.53,10.71l-.62.85h-3l-.86-.85q.15-7,.15-9.69,0-6.33-.15-9.38l.78-1.09q13,.54,40,.55,28.44,0,39.92-.55l.78,1.09q-.15,3-.15,9.38Q788.53,117.5,788.68,124.46Z"/><path class="cls-3" d="M887.75,133.13q0,27.42-20.4,39.84-11.4,7-26.56,6.95a62.33,62.33,0,0,1-13-1.48v21.48c0,6,.19,9.77.55,11.33a3.11,3.11,0,0,0,2.11,2.35q1.49.54,10.31.93l.78.78v4.85l-.86.7-3.59-.16q-9-.39-19.37-.39-8.06,0-20.63.55l-.78-.78v-4.77l.78-.78c4.64-.21,7.5-.49,8.59-.86a3.16,3.16,0,0,0,2-2.34c.31-1.09.47-4.9.47-11.41V129q0-9.77-.51-11.53a3,3,0,0,0-1.92-2.22c-1.09-.37-4.06-.65-8.9-.86l-.86-.78v-4.38l.7-.78a142.42,142.42,0,0,0,29.69-6.56l1.64,1-.08,13.28q12.27-13.35,28.75-13.36A34.11,34.11,0,0,1,872,106.33a27,27,0,0,1,11.57,10.47A31.4,31.4,0,0,1,887.75,133.13Zm-20.32,10.23q0-18.51-10.47-25.08a21.2,21.2,0,0,0-11.56-3.36q-11.79,0-15.78,9.07-1.8,4.14-1.8,13v26.72q8.59,8.76,18.28,8.75a18.7,18.7,0,0,0,11.57-4,23.31,23.31,0,0,0,7.26-9.92A41.81,41.81,0,0,0,867.43,143.36Z"/><path class="cls-3" d="M915.4,110.63q12.11-9.06,30.39-9.07,18.68,0,30.16,9.54,12.42,10.23,12.42,28.51a45.37,45.37,0,0,1-5.16,21.95A34.25,34.25,0,0,1,967,176.8a55.59,55.59,0,0,1-23.51,5q-25.32,0-36.33-17.5-6.09-9.54-5.94-24Q901.5,121.1,915.4,110.63Zm7.42,29.84q0,13.83,4.07,22.73,5.46,12.12,17.57,12.11,22.42,0,22.43-34.84,0-15.08-5.82-23.91a18.54,18.54,0,0,0-16.37-8.82q-11.72,0-17.42,11.17Q922.83,127.58,922.82,140.47Z"/><path class="cls-3" d="M1084,170.94l1,1q-4.29,13.37-8.2,31.18l-.94.7h-4.14l-1-.7q0-15.7-.78-18.95a6.24,6.24,0,0,0-3.94-4.53q-3.16-1.29-26.06-1.29-7.73,0-15.11.35c-4.93.24-8,.72-9.26,1.45a6.21,6.21,0,0,0-2.7,3.67q-.81,2.58-.82,12.81v6.49l-1,.7h-4.22l-.94-.7q-3.75-17.26-7.11-27.74L997.67,172l1.09-1,4.53.7,40.55-56.72a4.81,4.81,0,0,0,.86-1.71c0-.32-.27-.63-.82-.94a17.89,17.89,0,0,0-4.81-.94c-2.65-.31-5.75-.55-9.29-.7l-1-.86v-4.61l.94-.78q5.55.23,21.09.23,10.08,0,20.47-.23l1.8.93-.55,18.29q-.24,7.11-.23,19.37,0,23.28.62,28l.78,1Zm-31.57,1V113.6h-1.09l-17.19,28L1015.71,172Z"/><path class="cls-3" d="M1167.9,139.46l-1.09,1.25q-5.79,2.26-27,2.26-13.21,0-24.07-.23.7,12.42,6.8,19.84,6.79,8.21,18.83,8.2a36.64,36.64,0,0,0,21.09-6.25l1.33,2.74-3.12,6.64q-14.07,7.72-28,7.73-24,0-32.74-17.58a45.27,45.27,0,0,1-4.53-20.39q0-17.56,10.55-28.43,11.79-12.12,29.37-12.11,16,0,24.3,8T1167.9,137ZM1147,135.24a77.59,77.59,0,0,0-.86-11.72q-1.4-6.72-5.39-10.08-3.58-3-9.69-3-16.17,0-16.17,20.94c0,1.14,0,2.63.08,4.45q3.9.24,10.08.24Q1137.75,136.1,1147,135.24Z"/><path class="cls-3" d="M1277,178.13l-.78.78q-7.42-.56-21.33-.55-13,0-21.33.55l-.78-.78v-4.77l.63-.78c5-.21,8-.52,9-.94a3.09,3.09,0,0,0,2-2.34c.32-1.51.47-5.29.47-11.33V140.31h-35.86V158c0,6,.19,9.82.55,11.33a3.1,3.1,0,0,0,2,2.34c1.1.42,4.06.73,8.91.94l.78.78v4.77l-.78.78q-7.35-.56-21.33-.55t-21.41.55l-.78-.78v-4.77l.86-.78q6.8-.32,8.67-.94a3.12,3.12,0,0,0,2-2.34c.32-1.1.47-4.87.47-11.33V132q0-18-1.17-19.45a3.58,3.58,0,0,0-2-1.17,69.56,69.56,0,0,0-8.2-.7l-.79-.79v-4.76l.79-.78q7.5.54,21.32.54,14.07,0,21.41-.54l.78.78V110l-.86.78c-4.64.11-7.6.39-8.9.86a3.28,3.28,0,0,0-2,2.7q-.39,2.07-.39,12.62v7.57h35.86v-5.31q0-9.37-.23-12.34c-.26-3.08-1.23-4.87-2.89-5.39a51.29,51.29,0,0,0-8.21-.71l-.85-.86v-4.76l.85-.78q7.43.54,21.33.54,13.13,0,21.33-.54l.78.78V110l-.78.78c-4.64.11-7.6.39-8.91.86a3.29,3.29,0,0,0-2,2.7q-.39,2.07-.39,12.62v31q0,9.06.55,11.33a3.1,3.1,0,0,0,2,2.34q1.63.63,8.75.94l.78.78Z"/><path class="cls-3" d="M1365.32,124.46l-.86.85h-3l-.63-.85q-2.58-8.13-4.45-10.55a5.89,5.89,0,0,0-4-2.19q-2.1-.39-17.89-.39v26.72q0,27.42.78,30.86a3.74,3.74,0,0,0,2.66,3,54.22,54.22,0,0,0,8.12.7l.79.78v4.77l-.79.78q-7.33-.56-21.4-.55t-21.41.55l-.78-.78v-4.77l.78-.78a53,53,0,0,0,8-.7,3.74,3.74,0,0,0,2.58-3q.78-3.43.78-30.86V111.33q-14.76,0-17.58.31a6.85,6.85,0,0,0-4.22,2.11q-1.71,1.8-4.53,10.71l-.62.85h-3l-.86-.85c.1-4.64.16-7.87.16-9.69,0-4.22-.06-7.35-.16-9.38l.78-1.09q13.05.54,40,.55,28.44,0,39.92-.55l.78,1.09q-.15,3-.15,9.38Q1365.17,117.5,1365.32,124.46Z"/></g></g></g></svg>