<svg xmlns="http://www.w3.org/2000/svg"><defs><style>.cls-1{fill:#676cb8}</style></defs><symbol id="check-icon" viewBox="0 0 23 22"><title>checkAsset 1</title><g id="Layer_2" data-name="Layer 2"><path class="cls-1" d="M0 14a32.06 32.06 0 0 1 3 1.78A32.48 32.48 0 0 1 10 22c2-3.89 5.66-8.13 10.51-12.39A8.31 8.31 0 0 1 23 8V0A28.74 28.74 0 0 0 9.78 16.22 15.53 15.53 0 0 0 8 12.49 15.55 15.55 0 0 0 6 10z" id="Layer_1-2" data-name="Layer 1"/></g></symbol><symbol id="email-icon" viewBox="0 0 483.3 483.3"><path d="M424.3 57.75H59.1c-32.6 0-59.1 26.5-59.1 59.1v249.6c0 32.6 26.5 59.1 59.1 59.1h365.1c32.6 0 59.1-26.5 59.1-59.1v-249.5c.1-32.6-26.4-59.2-59-59.2zm32.1 308.7c0 17.7-14.4 32.1-32.1 32.1H59.1c-17.7 0-32.1-14.4-32.1-32.1v-249.5c0-17.7 14.4-32.1 32.1-32.1h365.1c17.7 0 32.1 14.4 32.1 32.1v249.5h.1z"/><path d="M304.8 238.55l118.2-106c5.5-5 6-13.5 1-19.1-5-5.5-13.5-6-19.1-1l-163 146.3-31.8-28.4c-.1-.1-.2-.2-.2-.3-.7-.7-1.4-1.3-2.2-1.9L78.3 112.35c-5.6-5-14.1-4.5-19.1 1.1-5 5.6-4.5 14.1 1.1 19.1l119.6 106.9-119.1 111.5c-5.4 5.1-5.7 13.6-.6 19.1 2.7 2.8 6.3 4.3 9.9 4.3 3.3 0 6.6-1.2 9.2-3.6l120.9-113.1 32.8 29.3c2.6 2.3 5.8 3.4 9 3.4s6.5-1.2 9-3.5l33.7-30.2 120.2 114.2c2.6 2.5 6 3.7 9.3 3.7 3.6 0 7.1-1.4 9.8-4.2 5.1-5.4 4.9-14-.5-19.1l-118.7-112.7z"/></symbol><symbol id="location-icon" viewBox="0 0 477 477"><path d="M238.4 0C133 0 47.2 85.8 47.2 191.2c0 12 1.1 24.1 3.4 35.9.1.7.5 2.8 1.3 6.4 2.9 12.9 7.2 25.6 12.8 37.7 20.6 48.5 65.9 123 165.3 202.8 2.5 2 5.5 3 8.5 3s6-1 8.5-3c99.3-79.8 144.7-154.3 165.3-202.8 5.6-12.1 9.9-24.7 12.8-37.7.8-3.6 1.2-5.7 1.3-6.4 2.2-11.8 3.4-23.9 3.4-35.9C429.6 85.8 343.8 0 238.4 0zm161.2 222.4c0 .2-.1.4-.1.6-.1.5-.4 2-.9 4.3v.2c-2.5 11.2-6.2 22.1-11.1 32.6-.1.1-.1.3-.2.4-18.7 44.3-59.7 111.9-148.9 185.6-89.2-73.7-130.2-141.3-148.9-185.6-.1-.1-.1-.3-.2-.4-4.8-10.4-8.5-21.4-11.1-32.6v-.2c-.6-2.3-.8-3.8-.9-4.3 0-.2-.1-.4-.1-.7-2-10.3-3-20.7-3-31.2 0-90.5 73.7-164.2 164.2-164.2s164.2 73.7 164.2 164.2c0 10.6-1 21.1-3 31.3z"/><path d="M238.4 71.9c-66.9 0-121.4 54.5-121.4 121.4s54.5 121.4 121.4 121.4 121.4-54.5 121.4-121.4S305.3 71.9 238.4 71.9zm0 215.8c-52.1 0-94.4-42.4-94.4-94.4s42.4-94.4 94.4-94.4 94.4 42.4 94.4 94.4-42.3 94.4-94.4 94.4z"/></symbol><symbol id="phone-icon" viewBox="0 0 463.009 463.009"><path d="M462.692 381.085c-1.472-11.126-7.895-20.719-17.62-26.318L330.846 289c-13.99-8.055-31.738-5.71-43.157 5.708l-22.499 22.499c-5.987 5.988-15.459 6.518-22.028 1.231-17.737-14.272-35.201-29.979-51.906-46.685-16.705-16.705-32.412-34.168-46.685-51.906-5.287-6.57-4.758-16.041 1.231-22.029l22.498-22.499c11.418-11.417 13.766-29.163 5.709-43.156L108.242 17.937C102.642 8.211 93.05 1.789 81.924.317c-11.127-1.475-22.06 2.236-29.996 10.172L18.027 44.391c-23.661 23.662-24.041 66.944-1.07 121.875 22.088 52.818 63.308 110.962 116.065 163.721 52.759 52.758 110.903 93.978 163.722 116.066 27.039 11.307 51.253 16.957 71.697 16.956 21.088 0 38.163-6.013 50.178-18.027l33.901-33.902c7.935-7.936 11.643-18.869 10.172-29.995zm-139.33-79.086l114.226 65.767c5.649 3.252 9.379 8.824 10.233 15.286.718 5.423-.691 10.763-3.885 15.066L292.131 311.48l6.165-6.165c6.631-6.631 16.941-7.994 25.066-3.316zM79.956 15.188c6.463.855 12.034 4.585 15.286 10.234l65.767 114.226c4.68 8.127 3.316 18.435-3.315 25.065l-5.663 5.663L64.917 19.073c3.561-2.637 7.82-4.069 12.26-4.069.921 0 1.85.061 2.779.184zm328.055 419.187c-18.798 18.798-57.244 18.01-105.48-2.162-51.06-21.352-107.491-61.424-158.901-112.833-51.41-51.41-91.482-107.842-112.834-158.901-20.173-48.237-20.96-86.683-2.162-105.482l25.167-25.168 87.245 151.532-5.851 5.851c-11.415 11.416-12.409 29.488-2.311 42.04 14.609 18.156 30.68 36.024 47.764 53.108 17.086 17.085 34.954 33.156 53.109 47.765 12.55 10.098 30.622 9.105 42.04-2.312l5.338-5.338 152.016 86.759-25.14 25.141z"/></symbol></svg>